<?xml version="1.0" standalone="no"?>
<svg xmlns:xlink="http://www.w3.org/1999/xlink" id="wave" style="transform:rotate(0deg); transition: 0.3s" viewBox="0 0 1440 270" version="1.1" xmlns="http://www.w3.org/2000/svg"><defs><linearGradient id="sw-gradient-0" x1="0" x2="0" y1="1" y2="0"><stop stop-color="rgba(243, 106, 62, 1)" offset="0%"/><stop stop-color="rgba(255, 179, 11, 1)" offset="100%"/></linearGradient></defs><path style="transform:translate(0, 0px); opacity:1" fill="url(#sw-gradient-0)" d="M0,81L26.7,94.5C53.3,108,107,135,160,139.5C213.3,144,267,126,320,139.5C373.3,153,427,198,480,202.5C533.3,207,587,171,640,148.5C693.3,126,747,117,800,135C853.3,153,907,198,960,220.5C1013.3,243,1067,243,1120,234C1173.3,225,1227,207,1280,198C1333.3,189,1387,189,1440,193.5C1493.3,198,1547,207,1600,202.5C1653.3,198,1707,180,1760,148.5C1813.3,117,1867,72,1920,85.5C1973.3,99,2027,171,2080,198C2133.3,225,2187,207,2240,207C2293.3,207,2347,225,2400,216C2453.3,207,2507,171,2560,171C2613.3,171,2667,207,2720,225C2773.3,243,2827,243,2880,225C2933.3,207,2987,171,3040,130.5C3093.3,90,3147,45,3200,27C3253.3,9,3307,18,3360,18C3413.3,18,3467,9,3520,27C3573.3,45,3627,90,3680,90C3733.3,90,3787,45,3813,22.5L3840,0L3840,270L3813.3,270C3786.7,270,3733,270,3680,270C3626.7,270,3573,270,3520,270C3466.7,270,3413,270,3360,270C3306.7,270,3253,270,3200,270C3146.7,270,3093,270,3040,270C2986.7,270,2933,270,2880,270C2826.7,270,2773,270,2720,270C2666.7,270,2613,270,2560,270C2506.7,270,2453,270,2400,270C2346.7,270,2293,270,2240,270C2186.7,270,2133,270,2080,270C2026.7,270,1973,270,1920,270C1866.7,270,1813,270,1760,270C1706.7,270,1653,270,1600,270C1546.7,270,1493,270,1440,270C1386.7,270,1333,270,1280,270C1226.7,270,1173,270,1120,270C1066.7,270,1013,270,960,270C906.7,270,853,270,800,270C746.7,270,693,270,640,270C586.7,270,533,270,480,270C426.7,270,373,270,320,270C266.7,270,213,270,160,270C106.7,270,53,270,27,270L0,270Z"/><defs><linearGradient id="sw-gradient-1" x1="0" x2="0" y1="1" y2="0"><stop stop-color="rgba(243, 106, 62, 1)" offset="0%"/><stop stop-color="rgba(255, 179, 11, 1)" offset="100%"/></linearGradient></defs><path style="transform:translate(0, 50px); opacity:0.9" fill="url(#sw-gradient-1)" d="M0,81L26.7,103.5C53.3,126,107,171,160,171C213.3,171,267,126,320,117C373.3,108,427,135,480,153C533.3,171,587,180,640,180C693.3,180,747,171,800,144C853.3,117,907,72,960,67.5C1013.3,63,1067,99,1120,99C1173.3,99,1227,63,1280,49.5C1333.3,36,1387,45,1440,54C1493.3,63,1547,72,1600,103.5C1653.3,135,1707,189,1760,207C1813.3,225,1867,207,1920,180C1973.3,153,2027,117,2080,99C2133.3,81,2187,81,2240,108C2293.3,135,2347,189,2400,180C2453.3,171,2507,99,2560,81C2613.3,63,2667,99,2720,99C2773.3,99,2827,63,2880,40.5C2933.3,18,2987,9,3040,45C3093.3,81,3147,162,3200,171C3253.3,180,3307,117,3360,94.5C3413.3,72,3467,90,3520,112.5C3573.3,135,3627,162,3680,157.5C3733.3,153,3787,117,3813,99L3840,81L3840,270L3813.3,270C3786.7,270,3733,270,3680,270C3626.7,270,3573,270,3520,270C3466.7,270,3413,270,3360,270C3306.7,270,3253,270,3200,270C3146.7,270,3093,270,3040,270C2986.7,270,2933,270,2880,270C2826.7,270,2773,270,2720,270C2666.7,270,2613,270,2560,270C2506.7,270,2453,270,2400,270C2346.7,270,2293,270,2240,270C2186.7,270,2133,270,2080,270C2026.7,270,1973,270,1920,270C1866.7,270,1813,270,1760,270C1706.7,270,1653,270,1600,270C1546.7,270,1493,270,1440,270C1386.7,270,1333,270,1280,270C1226.7,270,1173,270,1120,270C1066.7,270,1013,270,960,270C906.7,270,853,270,800,270C746.7,270,693,270,640,270C586.7,270,533,270,480,270C426.7,270,373,270,320,270C266.7,270,213,270,160,270C106.7,270,53,270,27,270L0,270Z"/><defs><linearGradient id="sw-gradient-2" x1="0" x2="0" y1="1" y2="0"><stop stop-color="rgba(243, 106, 62, 1)" offset="0%"/><stop stop-color="rgba(255, 179, 11, 1)" offset="100%"/></linearGradient></defs><path style="transform:translate(0, 100px); opacity:0.8" fill="url(#sw-gradient-2)" d="M0,189L26.7,193.5C53.3,198,107,207,160,193.5C213.3,180,267,144,320,139.5C373.3,135,427,162,480,144C533.3,126,587,63,640,63C693.3,63,747,126,800,135C853.3,144,907,99,960,76.5C1013.3,54,1067,54,1120,76.5C1173.3,99,1227,144,1280,144C1333.3,144,1387,99,1440,81C1493.3,63,1547,72,1600,90C1653.3,108,1707,135,1760,148.5C1813.3,162,1867,162,1920,135C1973.3,108,2027,54,2080,54C2133.3,54,2187,108,2240,135C2293.3,162,2347,162,2400,144C2453.3,126,2507,90,2560,67.5C2613.3,45,2667,36,2720,49.5C2773.3,63,2827,99,2880,112.5C2933.3,126,2987,117,3040,130.5C3093.3,144,3147,180,3200,198C3253.3,216,3307,216,3360,180C3413.3,144,3467,72,3520,36C3573.3,0,3627,0,3680,0C3733.3,0,3787,0,3813,0L3840,0L3840,270L3813.3,270C3786.7,270,3733,270,3680,270C3626.7,270,3573,270,3520,270C3466.7,270,3413,270,3360,270C3306.7,270,3253,270,3200,270C3146.7,270,3093,270,3040,270C2986.7,270,2933,270,2880,270C2826.7,270,2773,270,2720,270C2666.7,270,2613,270,2560,270C2506.7,270,2453,270,2400,270C2346.7,270,2293,270,2240,270C2186.7,270,2133,270,2080,270C2026.7,270,1973,270,1920,270C1866.7,270,1813,270,1760,270C1706.7,270,1653,270,1600,270C1546.7,270,1493,270,1440,270C1386.7,270,1333,270,1280,270C1226.7,270,1173,270,1120,270C1066.7,270,1013,270,960,270C906.7,270,853,270,800,270C746.7,270,693,270,640,270C586.7,270,533,270,480,270C426.7,270,373,270,320,270C266.7,270,213,270,160,270C106.7,270,53,270,27,270L0,270Z"/><defs><linearGradient id="sw-gradient-3" x1="0" x2="0" y1="1" y2="0"><stop stop-color="rgba(243, 106, 62, 1)" offset="0%"/><stop stop-color="rgba(255, 179, 11, 1)" offset="100%"/></linearGradient></defs><path style="transform:translate(0, 150px); opacity:0.7" fill="url(#sw-gradient-3)" d="M0,0L26.7,4.5C53.3,9,107,18,160,27C213.3,36,267,45,320,72C373.3,99,427,144,480,162C533.3,180,587,171,640,139.5C693.3,108,747,54,800,63C853.3,72,907,144,960,144C1013.3,144,1067,72,1120,36C1173.3,0,1227,0,1280,0C1333.3,0,1387,0,1440,40.5C1493.3,81,1547,162,1600,193.5C1653.3,225,1707,207,1760,207C1813.3,207,1867,225,1920,198C1973.3,171,2027,99,2080,85.5C2133.3,72,2187,117,2240,153C2293.3,189,2347,216,2400,225C2453.3,234,2507,225,2560,202.5C2613.3,180,2667,144,2720,139.5C2773.3,135,2827,162,2880,166.5C2933.3,171,2987,153,3040,153C3093.3,153,3147,171,3200,162C3253.3,153,3307,117,3360,90C3413.3,63,3467,45,3520,72C3573.3,99,3627,171,3680,207C3733.3,243,3787,243,3813,243L3840,243L3840,270L3813.3,270C3786.7,270,3733,270,3680,270C3626.7,270,3573,270,3520,270C3466.7,270,3413,270,3360,270C3306.7,270,3253,270,3200,270C3146.7,270,3093,270,3040,270C2986.7,270,2933,270,2880,270C2826.7,270,2773,270,2720,270C2666.7,270,2613,270,2560,270C2506.7,270,2453,270,2400,270C2346.7,270,2293,270,2240,270C2186.7,270,2133,270,2080,270C2026.7,270,1973,270,1920,270C1866.7,270,1813,270,1760,270C1706.7,270,1653,270,1600,270C1546.7,270,1493,270,1440,270C1386.7,270,1333,270,1280,270C1226.7,270,1173,270,1120,270C1066.7,270,1013,270,960,270C906.7,270,853,270,800,270C746.7,270,693,270,640,270C586.7,270,533,270,480,270C426.7,270,373,270,320,270C266.7,270,213,270,160,270C106.7,270,53,270,27,270L0,270Z"/></svg>